<?xml version="1.0" standalone="no"?>
<!DOCTYPE svg PUBLIC "-//W3C//DTD SVG 20010904//EN"
 "http://www.w3.org/TR/2001/REC-SVG-20010904/DTD/svg10.dtd">
<svg version="1.0" xmlns="http://www.w3.org/2000/svg"
 width="256.000000pt" height="256.000000pt" viewBox="0 0 256.000000 256.000000"
 preserveAspectRatio="xMidYMid meet">
<metadata>
Created by potrace 1.11, written by Peter Selinger 2001-2013
</metadata>
<g transform="translate(0.000000,256.000000) scale(0.100000,-0.100000)"
fill="#000000" stroke="none">
<path d="M0 1282 l0 -1278 90 -1 c49 0 87 3 85 7 -3 5 -1 12 5 15 6 4 9 1 8
-7 -2 -7 8 -14 22 -16 18 -2 21 0 11 6 -8 6 -9 12 -3 16 5 3 12 -1 16 -9 5
-13 135 -15 1071 -15 808 0 1065 3 1065 12 0 9 3 9 12 0 17 -17 25 -15 31 9 3
12 10 18 16 14 6 -3 9 -11 6 -16 -3 -5 1 -6 9 -3 18 7 17 24 -3 40 -11 9 -12
12 -1 19 8 5 11 4 6 -3 -4 -6 1 -10 13 -9 16 1 18 4 9 22 -10 18 -10 19 5 6
20 -16 23 -1 5 18 -11 11 -9 11 10 1 21 -10 27 -9 48 11 l24 23 0 1208 0 1208
-1280 0 -1280 0 0 -1278z m2548 -1138 c1 0 -8 -9 -20 -20 -13 -10 -20 -15 -16
-10 4 5 0 15 -10 23 -15 13 -15 13 6 3 24 -12 29 -2 10 20 -11 12 -10 12 7 0
11 -8 21 -15 23 -16z m-2441 -54 c-1 -11 -5 -20 -9 -20 -10 0 -10 4 -2 24 8
22 13 20 11 -4z m26 -39 c4 0 7 -6 7 -13 0 -9 -3 -9 -12 0 -19 19 -32 14 -17
-5 7 -10 9 -15 5 -11 -5 4 -16 2 -24 -5 -13 -9 -14 -9 -8 1 4 6 2 12 -3 12 -6
0 -11 -5 -11 -12 0 -17 -10 -4 -14 19 -4 17 1 19 32 18 21 -1 40 -3 45 -4z
m2230 -26 c-3 -9 -8 -14 -10 -11 -3 3 -2 9 2 15 9 16 15 13 8 -4z"/>
<path d="M66 42 c-2 -4 4 -8 14 -8 10 0 16 4 14 8 -3 4 -9 8 -14 8 -5 0 -11
-4 -14 -8z"/>
</g>
</svg>
