<?xml version="1.0" standalone="no"?>
<!DOCTYPE svg PUBLIC "-//W3C//DTD SVG 20010904//EN"
 "http://www.w3.org/TR/2001/REC-SVG-20010904/DTD/svg10.dtd">
<svg version="1.0" xmlns="http://www.w3.org/2000/svg"
 width="256.000000pt" height="256.000000pt" viewBox="0 0 256.000000 256.000000"
 preserveAspectRatio="xMidYMid meet">
<metadata>
Created by potrace 1.11, written by Peter Selinger 2001-2013
</metadata>
<g transform="translate(0.000000,256.000000) scale(0.100000,-0.100000)"
fill="#000000" stroke="none">
<path d="M0 2324 c0 -208 2 -235 15 -224 12 10 16 9 21 -4 4 -11 13 -15 25
-11 11 4 19 2 19 -4 0 -6 6 -11 14 -11 18 0 32 -20 20 -29 -16 -11 -16 -60 -8
-540 l6 -354 -21 6 c-25 6 -27 -1 -5 -18 22 -16 32 -105 12 -105 -9 0 -21 -7
-28 -15 -7 -9 -19 -14 -26 -11 -7 3 -20 -6 -29 -20 -11 -17 -12 -23 -3 -22 7
2 15 6 18 10 3 4 22 -6 42 -22 24 -20 38 -26 40 -18 3 7 8 -44 11 -113 8 -135
27 -221 58 -255 10 -11 19 -24 20 -30 0 -5 32 -25 71 -44 98 -49 105 -49 23 0
-76 45 -102 66 -116 91 -7 14 -4 16 24 14 42 -4 114 -23 141 -37 29 -16 81
-19 66 -4 -6 6 -15 11 -21 11 -5 0 -8 3 -6 7 1 3 -10 16 -26 28 -15 12 -24 26
-21 32 4 6 2 8 -3 5 -6 -4 -16 0 -23 8 -7 8 -9 15 -4 15 5 0 3 4 -5 9 -8 5
-16 15 -17 23 -1 7 -5 29 -8 48 -4 19 -9 46 -11 60 -5 33 -32 343 -39 450 -3
47 -8 123 -11 170 -20 311 -26 383 -40 445 -22 102 -20 166 7 200 l22 28 -30
-7 -29 -8 22 24 c13 13 53 38 90 56 119 56 964 373 1017 382 87 14 125 4 411
-108 55 -21 231 -89 390 -151 160 -62 316 -127 349 -144 105 -56 130 -129 121
-347 -18 -399 -36 -991 -32 -1002 3 -7 6 3 6 23 1 29 5 36 19 35 16 -1 17 47
20 857 l2 857 -1280 0 -1280 0 0 -236z m119 -1341 c0 -25 -1 -26 -9 -8 -12 27
-12 35 0 35 6 0 10 -12 9 -27z m2431 -92 c0 -5 -7 -12 -16 -15 -14 -5 -15 -4
-4 9 14 17 20 19 20 6z"/>
<path d="M1417 1543 c-3 -681 -5 -753 -21 -807 -40 -134 -101 -209 -200 -243
-75 -26 -260 -24 -338 4 l-56 21 -21 -111 c-11 -60 -18 -113 -16 -117 3 -4 37
-16 77 -26 100 -26 335 -26 428 -1 240 64 373 226 415 506 12 77 15 239 15
809 l0 712 -140 0 -139 0 -4 -747z"/>
<path d="M0 1083 l0 -37 20 22 c26 27 26 52 0 52 -16 0 -20 -7 -20 -37z"/>
<path d="M2502 690 c0 -14 2 -19 5 -12 2 6 2 18 0 25 -3 6 -5 1 -5 -13z"/>
<path d="M45 689 c-4 -6 -5 -12 -2 -15 2 -3 7 2 10 11 7 17 1 20 -8 4z"/>
<path d="M2491 643 c-1 -6 -4 -20 -7 -30 -5 -17 -5 -17 6 0 6 10 9 23 6 30 -3
9 -5 9 -5 0z"/>
<path d="M2515 619 c-4 -5 -3 -13 0 -19 6 -9 2 -11 -32 -14 -6 -1 -22 -15 -34
-31 l-23 -30 30 25 c16 14 26 21 21 16 -4 -5 -1 -16 7 -25 8 -9 16 -25 18 -36
2 -13 11 -20 28 -20 24 0 25 3 28 70 3 65 1 71 -17 72 -12 1 -23 -2 -26 -8z
m0 -80 c11 -17 -1 -21 -15 -4 -8 9 -8 15 -2 15 6 0 14 -5 17 -11z"/>
<path d="M2380 499 c-22 -18 -22 -19 -3 -10 12 6 25 16 28 21 9 15 3 12 -25
-11z"/>
<path d="M2180 395 c-58 -30 -98 -55 -90 -56 35 -4 56 4 76 26 12 13 45 35 73
49 28 15 51 29 51 31 0 7 6 10 -110 -50z"/>
<path d="M464 396 c11 -9 24 -16 30 -16 12 0 7 5 -24 19 -24 11 -24 11 -6 -3z"/>
<path d="M510 375 c0 -2 17 -13 38 -24 20 -11 31 -20 25 -21 -21 0 -14 -30 7
-30 14 0 18 5 13 16 -4 10 29 -2 96 -36 88 -44 102 -54 99 -73 -2 -15 -10 -22
-26 -23 -12 -1 -25 2 -27 6 -7 11 -42 1 -55 -15 -8 -9 -6 -17 5 -29 14 -14 20
-14 43 -2 15 7 40 12 56 10 26 -3 28 -1 24 30 -3 28 -1 32 15 28 11 -3 22 -21
29 -48 13 -49 28 -54 57 -23 22 24 41 18 41 -12 0 -21 -56 -52 -74 -42 -10 7
-26 -16 -26 -37 1 -12 3 -11 11 3 17 29 46 21 59 -18 9 -29 14 -33 28 -24 13
8 17 25 17 65 0 58 16 77 25 29 6 -28 7 -28 13 -8 7 20 10 20 35 7 22 -11 26
-19 24 -44 -3 -25 0 -30 17 -30 12 0 20 5 19 11 -2 6 3 14 11 16 9 4 11 0 6
-16 -5 -16 -2 -21 12 -22 10 -1 5 -5 -12 -9 l-30 -8 33 -1 c30 -1 33 1 27 20
-6 17 -4 20 12 15 10 -3 30 -8 46 -12 15 -3 27 -9 27 -13 0 -4 35 -8 78 -8 42
-1 70 0 62 3 -8 3 -25 11 -38 17 -18 9 -25 8 -32 -2 -14 -23 -89 8 -451 190
-187 93 -339 167 -339 164z m388 -225 c-15 -24 -22 -19 -13 9 3 12 11 19 16
16 5 -4 3 -14 -3 -25z m-163 10 c-3 -5 -12 -7 -20 -3 -21 7 -19 13 6 13 11 0
18 -4 14 -10z"/>
<path d="M2190 339 c0 -5 5 -7 10 -4 6 3 10 8 10 11 0 2 -4 4 -10 4 -5 0 -10
-5 -10 -11z"/>
<path d="M1970 290 c-9 -6 -10 -10 -3 -10 6 0 15 5 18 10 8 12 4 12 -15 0z"/>
<path d="M216 279 c3 -5 10 -7 15 -4 5 4 9 1 9 -4 0 -6 8 -11 18 -11 34 0 20
25 -15 27 -19 1 -31 -3 -27 -8z"/>
<path d="M510 280 c19 -13 30 -13 30 0 0 6 -10 10 -22 10 -19 0 -20 -2 -8 -10z"/>
<path d="M2025 266 c19 -29 26 -31 43 -14 19 19 14 30 -10 27 -13 -2 -29 0
-37 5 -8 6 -7 -1 4 -18z"/>
<path d="M147 251 c-30 -19 -51 -39 -27 -26 13 8 13 7 1 -8 -8 -10 -21 -15
-30 -12 -27 8 -91 -104 -91 -160 l0 -45 41 0 c24 0 38 4 34 10 -3 5 -2 17 3
25 7 14 12 12 36 -8 25 -22 38 -24 141 -26 l113 -2 15 43 c9 24 18 50 21 58 3
12 5 11 5 -2 1 -10 4 -18 9 -18 13 0 1 84 -14 96 -7 6 -20 26 -27 44 -10 22
-17 28 -22 20 -4 -7 -2 -16 6 -21 9 -6 4 -8 -16 -3 -16 3 -25 2 -20 -3 13 -10
19 -63 8 -63 -5 0 -14 5 -19 10 -7 7 -16 4 -29 -10 -18 -20 -18 -21 0 -14 13
5 16 4 11 -5 -4 -7 -20 -11 -34 -9 -19 2 -29 -3 -37 -19 -8 -16 -15 -19 -28
-12 -20 12 -24 78 -5 97 6 6 13 27 15 47 4 41 -13 46 -60 16z"/>
<path d="M570 259 c0 -5 5 -7 10 -4 6 3 10 8 10 11 0 2 -4 4 -10 4 -5 0 -10
-5 -10 -11z"/>
<path d="M2343 215 c-6 -14 -7 -23 -2 -19 17 10 9 -35 -11 -68 -14 -23 -20
-28 -20 -15 0 21 -31 20 -38 -1 -2 -7 1 -11 8 -10 7 2 13 -14 16 -39 2 -25 0
-43 -6 -43 -6 0 -10 -4 -10 -10 0 -14 64 -12 78 2 9 9 15 9 24 0 17 -17 28
-15 28 4 0 12 6 15 25 10 28 -7 33 5 10 24 -15 12 -11 35 5 25 5 -3 10 5 12
17 2 13 10 23 20 23 19 0 78 50 78 66 0 8 -12 10 -35 6 -27 -4 -35 -3 -33 8 2
7 -1 14 -7 14 -5 0 -9 -7 -7 -16 2 -8 -1 -12 -7 -9 -5 3 -17 -1 -25 -10 -9 -8
-16 -11 -16 -5 0 6 -11 13 -24 17 -15 3 -26 14 -28 27 -4 30 -21 31 -35 2z"/>
<path d="M395 220 c-3 -5 -1 -10 4 -10 6 0 11 -7 11 -15 0 -19 16 -19 24 0 3
8 0 14 -7 12 -7 -1 -11 4 -9 11 2 14 -14 16 -23 2z"/>
<path d="M631 221 c-8 -5 -9 -10 -3 -12 7 -3 4 -13 -6 -27 -16 -20 -22 -22
-46 -12 -18 7 -26 15 -22 25 3 8 2 16 -2 19 -4 2 -12 -11 -18 -30 -9 -27 -8
-34 2 -34 8 0 14 -7 14 -15 0 -8 4 -15 9 -15 4 0 16 -28 26 -62 l18 -63 11 45
c9 40 11 42 14 17 3 -28 4 -28 23 -11 12 11 17 24 13 39 -3 13 -1 26 5 29 16
10 13 26 -3 26 -21 0 -30 19 -17 34 16 19 0 58 -18 47z"/>
<path d="M500 210 c0 -5 -6 -10 -13 -10 -7 0 -18 -9 -24 -19 -10 -16 -8 -22
13 -35 23 -16 25 -16 34 9 13 34 13 65 0 65 -5 0 -10 -4 -10 -10z"/>
<path d="M2053 202 c-8 -5 -8 -12 2 -25 12 -17 13 -16 11 7 0 15 -1 26 -1 26
0 0 -5 -4 -12 -8z"/>
<path d="M1770 190 c-9 -6 -10 -10 -3 -10 6 0 15 5 18 10 8 12 4 12 -15 0z"/>
<path d="M1642 127 c-12 -7 -19 -16 -16 -20 12 -12 26 -8 18 5 -5 7 0 9 14 6
15 -4 19 -2 15 8 -3 8 -6 14 -7 14 0 -1 -11 -6 -24 -13z"/>
<path d="M703 116 c-13 -6 -23 -14 -23 -19 0 -9 36 9 45 23 3 6 5 9 3 9 -2 -1
-13 -6 -25 -13z"/>
<path d="M782 110 c0 -14 2 -19 5 -12 2 6 2 18 0 25 -3 6 -5 1 -5 -13z"/>
<path d="M2206 122 c-3 -5 1 -9 9 -9 8 0 12 4 9 9 -3 4 -7 8 -9 8 -2 0 -6 -4
-9 -8z"/>
<path d="M750 110 c0 -5 5 -10 10 -10 6 0 10 5 10 10 0 6 -4 10 -10 10 -5 0
-10 -4 -10 -10z"/>
<path d="M2074 79 c-4 -7 -3 -9 4 -5 5 3 13 0 15 -6 4 -9 6 -10 6 -1 1 17 -16
25 -25 12z"/>
<path d="M1646 61 c-4 -7 -5 -15 -2 -18 9 -9 19 4 14 18 -4 11 -6 11 -12 0z"/>
<path d="M688 30 l-17 -30 76 0 76 0 -26 20 c-14 11 -32 20 -40 20 -9 0 -19 4
-22 10 -11 18 -30 10 -47 -20z m38 -17 c-11 -11 -19 6 -11 24 8 17 8 17 12 0
3 -10 2 -21 -1 -24z"/>
<path d="M1440 34 c-30 -13 -48 -23 -40 -24 8 0 38 11 65 24 64 31 47 31 -25
0z"/>
<path d="M1620 20 c0 -5 9 -10 21 -10 11 0 17 4 14 10 -3 6 -13 10 -21 10 -8
0 -14 -4 -14 -10z"/>
<path d="M2183 15 c0 -8 4 -15 9 -15 4 0 8 4 8 9 0 6 -4 12 -8 15 -5 3 -9 -1
-9 -9z"/>
<path d="M530 10 c0 -5 5 -10 11 -10 5 0 7 5 4 10 -3 6 -8 10 -11 10 -2 0 -4
-4 -4 -10z"/>
<path d="M630 10 c0 -5 5 -10 11 -10 5 0 7 5 4 10 -3 6 -8 10 -11 10 -2 0 -4
-4 -4 -10z"/>
</g>
</svg>
