<?xml version="1.0" encoding="UTF-8"?>
<!DOCTYPE svg PUBLIC "-//W3C//DTD SVG 1.1//EN" "http://www.w3.org/Graphics/SVG/1.1/DTD/svg11.dtd">
<svg xmlns="http://www.w3.org/2000/svg" version="1.1" viewBox="0 0 65 65" stroke="none">
	<!-- Generated with https://github.com/nayuki/QR-Code-generator #c4c8d6b from
	     "bitcoin:1MoSyGZp3SKpoiXPXfZDFK7cDUFCVtEDeS?label=nabijaczleweli&message=Donation%20for%20nabijaczleweli" on 2017-09-10T11:13:53+02:00 -->
	<rect width="100%" height="100%" fill="#FFFFFF"/>
	<path d="M4,4h1v1h-1z M5,4h1v1h-1z M6,4h1v1h-1z M7,4h1v1h-1z M8,4h1v1h-1z M9,4h1v1h-1z M10,4h1v1h-1z M12,4h1v1h-1z M16,4h1v1h-1z M19,4h1v1h-1z M20,4h1v1h-1z M23,4h1v1h-1z M25,4h1v1h-1z M28,4h1v1h-1z M32,4h1v1h-1z M34,4h1v1h-1z M36,4h1v1h-1z M37,4h1v1h-1z M40,4h1v1h-1z M41,4h1v1h-1z M42,4h1v1h-1z M43,4h1v1h-1z M46,4h1v1h-1z M47,4h1v1h-1z M48,4h1v1h-1z M50,4h1v1h-1z M51,4h1v1h-1z M54,4h1v1h-1z M55,4h1v1h-1z M56,4h1v1h-1z M57,4h1v1h-1z M58,4h1v1h-1z M59,4h1v1h-1z M60,4h1v1h-1z M4,5h1v1h-1z M10,5h1v1h-1z M13,5h1v1h-1z M17,5h1v1h-1z M19,5h1v1h-1z M20,5h1v1h-1z M22,5h1v1h-1z M24,5h1v1h-1z M25,5h1v1h-1z M26,5h1v1h-1z M29,5h1v1h-1z M31,5h1v1h-1z M32,5h1v1h-1z M33,5h1v1h-1z M36,5h1v1h-1z M38,5h1v1h-1z M42,5h1v1h-1z M45,5h1v1h-1z M46,5h1v1h-1z M48,5h1v1h-1z M51,5h1v1h-1z M54,5h1v1h-1z M60,5h1v1h-1z M4,6h1v1h-1z M6,6h1v1h-1z M7,6h1v1h-1z M8,6h1v1h-1z M10,6h1v1h-1z M12,6h1v1h-1z M14,6h1v1h-1z M15,6h1v1h-1z M16,6h1v1h-1z M18,6h1v1h-1z M21,6h1v1h-1z M22,6h1v1h-1z M25,6h1v1h-1z M26,6h1v1h-1z M27,6h1v1h-1z M28,6h1v1h-1z M31,6h1v1h-1z M34,6h1v1h-1z M36,6h1v1h-1z M38,6h1v1h-1z M40,6h1v1h-1z M41,6h1v1h-1z M44,6h1v1h-1z M45,6h1v1h-1z M46,6h1v1h-1z M47,6h1v1h-1z M48,6h1v1h-1z M49,6h1v1h-1z M50,6h1v1h-1z M51,6h1v1h-1z M54,6h1v1h-1z M56,6h1v1h-1z M57,6h1v1h-1z M58,6h1v1h-1z M60,6h1v1h-1z M4,7h1v1h-1z M6,7h1v1h-1z M7,7h1v1h-1z M8,7h1v1h-1z M10,7h1v1h-1z M14,7h1v1h-1z M15,7h1v1h-1z M19,7h1v1h-1z M20,7h1v1h-1z M21,7h1v1h-1z M22,7h1v1h-1z M23,7h1v1h-1z M25,7h1v1h-1z M27,7h1v1h-1z M28,7h1v1h-1z M29,7h1v1h-1z M30,7h1v1h-1z M32,7h1v1h-1z M33,7h1v1h-1z M34,7h1v1h-1z M39,7h1v1h-1z M41,7h1v1h-1z M42,7h1v1h-1z M44,7h1v1h-1z M46,7h1v1h-1z M48,7h1v1h-1z M49,7h1v1h-1z M51,7h1v1h-1z M54,7h1v1h-1z M56,7h1v1h-1z M57,7h1v1h-1z M58,7h1v1h-1z M60,7h1v1h-1z M4,8h1v1h-1z M6,8h1v1h-1z M7,8h1v1h-1z M8,8h1v1h-1z M10,8h1v1h-1z M12,8h1v1h-1z M14,8h1v1h-1z M16,8h1v1h-1z M17,8h1v1h-1z M19,8h1v1h-1z M20,8h1v1h-1z M23,8h1v1h-1z M30,8h1v1h-1z M31,8h1v1h-1z M32,8h1v1h-1z M33,8h1v1h-1z M34,8h1v1h-1z M35,8h1v1h-1z M38,8h1v1h-1z M39,8h1v1h-1z M40,8h1v1h-1z M41,8h1v1h-1z M45,8h1v1h-1z M46,8h1v1h-1z M48,8h1v1h-1z M51,8h1v1h-1z M54,8h1v1h-1z M56,8h1v1h-1z M57,8h1v1h-1z M58,8h1v1h-1z M60,8h1v1h-1z M4,9h1v1h-1z M10,9h1v1h-1z M14,9h1v1h-1z M15,9h1v1h-1z M16,9h1v1h-1z M17,9h1v1h-1z M18,9h1v1h-1z M19,9h1v1h-1z M23,9h1v1h-1z M24,9h1v1h-1z M25,9h1v1h-1z M26,9h1v1h-1z M28,9h1v1h-1z M29,9h1v1h-1z M30,9h1v1h-1z M34,9h1v1h-1z M36,9h1v1h-1z M38,9h1v1h-1z M39,9h1v1h-1z M40,9h1v1h-1z M42,9h1v1h-1z M43,9h1v1h-1z M46,9h1v1h-1z M48,9h1v1h-1z M50,9h1v1h-1z M54,9h1v1h-1z M60,9h1v1h-1z M4,10h1v1h-1z M5,10h1v1h-1z M6,10h1v1h-1z M7,10h1v1h-1z M8,10h1v1h-1z M9,10h1v1h-1z M10,10h1v1h-1z M12,10h1v1h-1z M14,10h1v1h-1z M16,10h1v1h-1z M18,10h1v1h-1z M20,10h1v1h-1z M22,10h1v1h-1z M24,10h1v1h-1z M26,10h1v1h-1z M28,10h1v1h-1z M30,10h1v1h-1z M32,10h1v1h-1z M34,10h1v1h-1z M36,10h1v1h-1z M38,10h1v1h-1z M40,10h1v1h-1z M42,10h1v1h-1z M44,10h1v1h-1z M46,10h1v1h-1z M48,10h1v1h-1z M50,10h1v1h-1z M52,10h1v1h-1z M54,10h1v1h-1z M55,10h1v1h-1z M56,10h1v1h-1z M57,10h1v1h-1z M58,10h1v1h-1z M59,10h1v1h-1z M60,10h1v1h-1z M12,11h1v1h-1z M13,11h1v1h-1z M15,11h1v1h-1z M17,11h1v1h-1z M18,11h1v1h-1z M23,11h1v1h-1z M25,11h1v1h-1z M28,11h1v1h-1z M30,11h1v1h-1z M34,11h1v1h-1z M36,11h1v1h-1z M37,11h1v1h-1z M43,11h1v1h-1z M44,11h1v1h-1z M47,11h1v1h-1z M49,11h1v1h-1z M50,11h1v1h-1z M9,12h1v1h-1z M10,12h1v1h-1z M13,12h1v1h-1z M15,12h1v1h-1z M19,12h1v1h-1z M20,12h1v1h-1z M21,12h1v1h-1z M22,12h1v1h-1z M23,12h1v1h-1z M24,12h1v1h-1z M28,12h1v1h-1z M29,12h1v1h-1z M30,12h1v1h-1z M31,12h1v1h-1z M32,12h1v1h-1z M33,12h1v1h-1z M34,12h1v1h-1z M36,12h1v1h-1z M39,12h1v1h-1z M41,12h1v1h-1z M45,12h1v1h-1z M46,12h1v1h-1z M49,12h1v1h-1z M50,12h1v1h-1z M54,12h1v1h-1z M56,12h1v1h-1z M58,12h1v1h-1z M60,12h1v1h-1z M5,13h1v1h-1z M6,13h1v1h-1z M7,13h1v1h-1z M8,13h1v1h-1z M12,13h1v1h-1z M14,13h1v1h-1z M15,13h1v1h-1z M17,13h1v1h-1z M21,13h1v1h-1z M22,13h1v1h-1z M24,13h1v1h-1z M26,13h1v1h-1z M27,13h1v1h-1z M28,13h1v1h-1z M29,13h1v1h-1z M31,13h1v1h-1z M32,13h1v1h-1z M36,13h1v1h-1z M38,13h1v1h-1z M42,13h1v1h-1z M43,13h1v1h-1z M45,13h1v1h-1z M46,13h1v1h-1z M47,13h1v1h-1z M48,13h1v1h-1z M49,13h1v1h-1z M51,13h1v1h-1z M52,13h1v1h-1z M53,13h1v1h-1z M54,13h1v1h-1z M55,13h1v1h-1z M57,13h1v1h-1z M58,13h1v1h-1z M4,14h1v1h-1z M5,14h1v1h-1z M8,14h1v1h-1z M9,14h1v1h-1z M10,14h1v1h-1z M11,14h1v1h-1z M13,14h1v1h-1z M19,14h1v1h-1z M20,14h1v1h-1z M21,14h1v1h-1z M26,14h1v1h-1z M27,14h1v1h-1z M28,14h1v1h-1z M29,14h1v1h-1z M31,14h1v1h-1z M32,14h1v1h-1z M33,14h1v1h-1z M35,14h1v1h-1z M36,14h1v1h-1z M40,14h1v1h-1z M41,14h1v1h-1z M43,14h1v1h-1z M49,14h1v1h-1z M51,14h1v1h-1z M53,14h1v1h-1z M55,14h1v1h-1z M57,14h1v1h-1z M58,14h1v1h-1z M59,14h1v1h-1z M4,15h1v1h-1z M5,15h1v1h-1z M6,15h1v1h-1z M7,15h1v1h-1z M9,15h1v1h-1z M12,15h1v1h-1z M15,15h1v1h-1z M16,15h1v1h-1z M17,15h1v1h-1z M24,15h1v1h-1z M26,15h1v1h-1z M27,15h1v1h-1z M28,15h1v1h-1z M33,15h1v1h-1z M34,15h1v1h-1z M37,15h1v1h-1z M38,15h1v1h-1z M43,15h1v1h-1z M46,15h1v1h-1z M48,15h1v1h-1z M49,15h1v1h-1z M50,15h1v1h-1z M51,15h1v1h-1z M55,15h1v1h-1z M56,15h1v1h-1z M57,15h1v1h-1z M58,15h1v1h-1z M4,16h1v1h-1z M5,16h1v1h-1z M7,16h1v1h-1z M8,16h1v1h-1z M9,16h1v1h-1z M10,16h1v1h-1z M11,16h1v1h-1z M12,16h1v1h-1z M13,16h1v1h-1z M14,16h1v1h-1z M15,16h1v1h-1z M17,16h1v1h-1z M18,16h1v1h-1z M19,16h1v1h-1z M20,16h1v1h-1z M22,16h1v1h-1z M23,16h1v1h-1z M28,16h1v1h-1z M29,16h1v1h-1z M30,16h1v1h-1z M31,16h1v1h-1z M32,16h1v1h-1z M33,16h1v1h-1z M39,16h1v1h-1z M40,16h1v1h-1z M44,16h1v1h-1z M48,16h1v1h-1z M51,16h1v1h-1z M56,16h1v1h-1z M4,17h1v1h-1z M7,17h1v1h-1z M8,17h1v1h-1z M9,17h1v1h-1z M14,17h1v1h-1z M18,17h1v1h-1z M20,17h1v1h-1z M23,17h1v1h-1z M25,17h1v1h-1z M29,17h1v1h-1z M31,17h1v1h-1z M32,17h1v1h-1z M35,17h1v1h-1z M38,17h1v1h-1z M41,17h1v1h-1z M43,17h1v1h-1z M45,17h1v1h-1z M46,17h1v1h-1z M48,17h1v1h-1z M49,17h1v1h-1z M51,17h1v1h-1z M52,17h1v1h-1z M53,17h1v1h-1z M55,17h1v1h-1z M57,17h1v1h-1z M5,18h1v1h-1z M6,18h1v1h-1z M10,18h1v1h-1z M14,18h1v1h-1z M15,18h1v1h-1z M21,18h1v1h-1z M22,18h1v1h-1z M24,18h1v1h-1z M25,18h1v1h-1z M27,18h1v1h-1z M30,18h1v1h-1z M31,18h1v1h-1z M33,18h1v1h-1z M34,18h1v1h-1z M36,18h1v1h-1z M37,18h1v1h-1z M41,18h1v1h-1z M42,18h1v1h-1z M48,18h1v1h-1z M49,18h1v1h-1z M50,18h1v1h-1z M55,18h1v1h-1z M56,18h1v1h-1z M57,18h1v1h-1z M59,18h1v1h-1z M4,19h1v1h-1z M8,19h1v1h-1z M9,19h1v1h-1z M11,19h1v1h-1z M12,19h1v1h-1z M15,19h1v1h-1z M16,19h1v1h-1z M17,19h1v1h-1z M21,19h1v1h-1z M25,19h1v1h-1z M28,19h1v1h-1z M29,19h1v1h-1z M30,19h1v1h-1z M31,19h1v1h-1z M34,19h1v1h-1z M35,19h1v1h-1z M36,19h1v1h-1z M39,19h1v1h-1z M40,19h1v1h-1z M43,19h1v1h-1z M44,19h1v1h-1z M46,19h1v1h-1z M47,19h1v1h-1z M50,19h1v1h-1z M51,19h1v1h-1z M52,19h1v1h-1z M53,19h1v1h-1z M54,19h1v1h-1z M55,19h1v1h-1z M56,19h1v1h-1z M57,19h1v1h-1z M58,19h1v1h-1z M4,20h1v1h-1z M5,20h1v1h-1z M8,20h1v1h-1z M9,20h1v1h-1z M10,20h1v1h-1z M14,20h1v1h-1z M15,20h1v1h-1z M16,20h1v1h-1z M17,20h1v1h-1z M20,20h1v1h-1z M22,20h1v1h-1z M23,20h1v1h-1z M24,20h1v1h-1z M25,20h1v1h-1z M26,20h1v1h-1z M29,20h1v1h-1z M30,20h1v1h-1z M32,20h1v1h-1z M33,20h1v1h-1z M34,20h1v1h-1z M38,20h1v1h-1z M42,20h1v1h-1z M46,20h1v1h-1z M49,20h1v1h-1z M53,20h1v1h-1z M55,20h1v1h-1z M59,20h1v1h-1z M6,21h1v1h-1z M8,21h1v1h-1z M11,21h1v1h-1z M13,21h1v1h-1z M14,21h1v1h-1z M17,21h1v1h-1z M19,21h1v1h-1z M22,21h1v1h-1z M24,21h1v1h-1z M25,21h1v1h-1z M27,21h1v1h-1z M28,21h1v1h-1z M30,21h1v1h-1z M31,21h1v1h-1z M33,21h1v1h-1z M35,21h1v1h-1z M38,21h1v1h-1z M40,21h1v1h-1z M41,21h1v1h-1z M44,21h1v1h-1z M45,21h1v1h-1z M46,21h1v1h-1z M48,21h1v1h-1z M49,21h1v1h-1z M51,21h1v1h-1z M52,21h1v1h-1z M53,21h1v1h-1z M55,21h1v1h-1z M58,21h1v1h-1z M59,21h1v1h-1z M4,22h1v1h-1z M5,22h1v1h-1z M6,22h1v1h-1z M7,22h1v1h-1z M8,22h1v1h-1z M9,22h1v1h-1z M10,22h1v1h-1z M12,22h1v1h-1z M13,22h1v1h-1z M14,22h1v1h-1z M15,22h1v1h-1z M17,22h1v1h-1z M18,22h1v1h-1z M20,22h1v1h-1z M21,22h1v1h-1z M23,22h1v1h-1z M24,22h1v1h-1z M25,22h1v1h-1z M29,22h1v1h-1z M33,22h1v1h-1z M34,22h1v1h-1z M36,22h1v1h-1z M37,22h1v1h-1z M39,22h1v1h-1z M40,22h1v1h-1z M41,22h1v1h-1z M42,22h1v1h-1z M44,22h1v1h-1z M45,22h1v1h-1z M47,22h1v1h-1z M48,22h1v1h-1z M49,22h1v1h-1z M52,22h1v1h-1z M53,22h1v1h-1z M55,22h1v1h-1z M56,22h1v1h-1z M57,22h1v1h-1z M58,22h1v1h-1z M60,22h1v1h-1z M4,23h1v1h-1z M5,23h1v1h-1z M6,23h1v1h-1z M8,23h1v1h-1z M16,23h1v1h-1z M18,23h1v1h-1z M20,23h1v1h-1z M23,23h1v1h-1z M25,23h1v1h-1z M27,23h1v1h-1z M28,23h1v1h-1z M29,23h1v1h-1z M30,23h1v1h-1z M31,23h1v1h-1z M33,23h1v1h-1z M34,23h1v1h-1z M36,23h1v1h-1z M39,23h1v1h-1z M40,23h1v1h-1z M43,23h1v1h-1z M45,23h1v1h-1z M47,23h1v1h-1z M48,23h1v1h-1z M49,23h1v1h-1z M51,23h1v1h-1z M53,23h1v1h-1z M54,23h1v1h-1z M56,23h1v1h-1z M57,23h1v1h-1z M58,23h1v1h-1z M59,23h1v1h-1z M60,23h1v1h-1z M5,24h1v1h-1z M8,24h1v1h-1z M10,24h1v1h-1z M11,24h1v1h-1z M12,24h1v1h-1z M13,24h1v1h-1z M14,24h1v1h-1z M16,24h1v1h-1z M17,24h1v1h-1z M22,24h1v1h-1z M23,24h1v1h-1z M24,24h1v1h-1z M25,24h1v1h-1z M26,24h1v1h-1z M29,24h1v1h-1z M30,24h1v1h-1z M31,24h1v1h-1z M32,24h1v1h-1z M33,24h1v1h-1z M37,24h1v1h-1z M38,24h1v1h-1z M41,24h1v1h-1z M42,24h1v1h-1z M46,24h1v1h-1z M47,24h1v1h-1z M49,24h1v1h-1z M50,24h1v1h-1z M52,24h1v1h-1z M59,24h1v1h-1z M5,25h1v1h-1z M9,25h1v1h-1z M11,25h1v1h-1z M15,25h1v1h-1z M17,25h1v1h-1z M18,25h1v1h-1z M19,25h1v1h-1z M22,25h1v1h-1z M25,25h1v1h-1z M30,25h1v1h-1z M31,25h1v1h-1z M32,25h1v1h-1z M34,25h1v1h-1z M36,25h1v1h-1z M39,25h1v1h-1z M42,25h1v1h-1z M43,25h1v1h-1z M45,25h1v1h-1z M46,25h1v1h-1z M47,25h1v1h-1z M49,25h1v1h-1z M50,25h1v1h-1z M51,25h1v1h-1z M52,25h1v1h-1z M53,25h1v1h-1z M54,25h1v1h-1z M55,25h1v1h-1z M56,25h1v1h-1z M58,25h1v1h-1z M4,26h1v1h-1z M5,26h1v1h-1z M7,26h1v1h-1z M8,26h1v1h-1z M10,26h1v1h-1z M11,26h1v1h-1z M13,26h1v1h-1z M14,26h1v1h-1z M15,26h1v1h-1z M16,26h1v1h-1z M18,26h1v1h-1z M19,26h1v1h-1z M21,26h1v1h-1z M24,26h1v1h-1z M27,26h1v1h-1z M28,26h1v1h-1z M31,26h1v1h-1z M32,26h1v1h-1z M33,26h1v1h-1z M37,26h1v1h-1z M38,26h1v1h-1z M41,26h1v1h-1z M42,26h1v1h-1z M44,26h1v1h-1z M49,26h1v1h-1z M51,26h1v1h-1z M52,26h1v1h-1z M54,26h1v1h-1z M55,26h1v1h-1z M57,26h1v1h-1z M58,26h1v1h-1z M59,26h1v1h-1z M8,27h1v1h-1z M11,27h1v1h-1z M12,27h1v1h-1z M15,27h1v1h-1z M18,27h1v1h-1z M19,27h1v1h-1z M20,27h1v1h-1z M21,27h1v1h-1z M23,27h1v1h-1z M25,27h1v1h-1z M26,27h1v1h-1z M28,27h1v1h-1z M29,27h1v1h-1z M30,27h1v1h-1z M34,27h1v1h-1z M36,27h1v1h-1z M39,27h1v1h-1z M40,27h1v1h-1z M42,27h1v1h-1z M45,27h1v1h-1z M48,27h1v1h-1z M49,27h1v1h-1z M50,27h1v1h-1z M51,27h1v1h-1z M52,27h1v1h-1z M53,27h1v1h-1z M55,27h1v1h-1z M56,27h1v1h-1z M58,27h1v1h-1z M8,28h1v1h-1z M9,28h1v1h-1z M10,28h1v1h-1z M15,28h1v1h-1z M16,28h1v1h-1z M17,28h1v1h-1z M18,28h1v1h-1z M25,28h1v1h-1z M26,28h1v1h-1z M37,28h1v1h-1z M39,28h1v1h-1z M40,28h1v1h-1z M41,28h1v1h-1z M45,28h1v1h-1z M48,28h1v1h-1z M49,28h1v1h-1z M53,28h1v1h-1z M54,28h1v1h-1z M56,28h1v1h-1z M58,28h1v1h-1z M59,28h1v1h-1z M60,28h1v1h-1z M4,29h1v1h-1z M5,29h1v1h-1z M11,29h1v1h-1z M14,29h1v1h-1z M15,29h1v1h-1z M17,29h1v1h-1z M18,29h1v1h-1z M19,29h1v1h-1z M20,29h1v1h-1z M21,29h1v1h-1z M22,29h1v1h-1z M25,29h1v1h-1z M26,29h1v1h-1z M27,29h1v1h-1z M32,29h1v1h-1z M33,29h1v1h-1z M34,29h1v1h-1z M35,29h1v1h-1z M38,29h1v1h-1z M41,29h1v1h-1z M44,29h1v1h-1z M45,29h1v1h-1z M48,29h1v1h-1z M49,29h1v1h-1z M51,29h1v1h-1z M52,29h1v1h-1z M53,29h1v1h-1z M55,29h1v1h-1z M57,29h1v1h-1z M58,29h1v1h-1z M4,30h1v1h-1z M8,30h1v1h-1z M9,30h1v1h-1z M10,30h1v1h-1z M11,30h1v1h-1z M12,30h1v1h-1z M13,30h1v1h-1z M14,30h1v1h-1z M15,30h1v1h-1z M16,30h1v1h-1z M17,30h1v1h-1z M21,30h1v1h-1z M27,30h1v1h-1z M28,30h1v1h-1z M30,30h1v1h-1z M31,30h1v1h-1z M32,30h1v1h-1z M33,30h1v1h-1z M34,30h1v1h-1z M36,30h1v1h-1z M37,30h1v1h-1z M38,30h1v1h-1z M40,30h1v1h-1z M42,30h1v1h-1z M44,30h1v1h-1z M46,30h1v1h-1z M49,30h1v1h-1z M50,30h1v1h-1z M51,30h1v1h-1z M52,30h1v1h-1z M53,30h1v1h-1z M54,30h1v1h-1z M55,30h1v1h-1z M56,30h1v1h-1z M57,30h1v1h-1z M59,30h1v1h-1z M60,30h1v1h-1z M8,31h1v1h-1z M12,31h1v1h-1z M13,31h1v1h-1z M15,31h1v1h-1z M17,31h1v1h-1z M18,31h1v1h-1z M21,31h1v1h-1z M22,31h1v1h-1z M24,31h1v1h-1z M27,31h1v1h-1z M30,31h1v1h-1z M34,31h1v1h-1z M35,31h1v1h-1z M38,31h1v1h-1z M40,31h1v1h-1z M41,31h1v1h-1z M46,31h1v1h-1z M47,31h1v1h-1z M49,31h1v1h-1z M51,31h1v1h-1z M52,31h1v1h-1z M56,31h1v1h-1z M57,31h1v1h-1z M58,31h1v1h-1z M4,32h1v1h-1z M6,32h1v1h-1z M7,32h1v1h-1z M8,32h1v1h-1z M10,32h1v1h-1z M12,32h1v1h-1z M14,32h1v1h-1z M15,32h1v1h-1z M16,32h1v1h-1z M17,32h1v1h-1z M19,32h1v1h-1z M20,32h1v1h-1z M21,32h1v1h-1z M23,32h1v1h-1z M27,32h1v1h-1z M28,32h1v1h-1z M29,32h1v1h-1z M30,32h1v1h-1z M32,32h1v1h-1z M34,32h1v1h-1z M36,32h1v1h-1z M40,32h1v1h-1z M41,32h1v1h-1z M45,32h1v1h-1z M46,32h1v1h-1z M47,32h1v1h-1z M52,32h1v1h-1z M54,32h1v1h-1z M56,32h1v1h-1z M59,32h1v1h-1z M60,32h1v1h-1z M5,33h1v1h-1z M6,33h1v1h-1z M7,33h1v1h-1z M8,33h1v1h-1z M12,33h1v1h-1z M14,33h1v1h-1z M16,33h1v1h-1z M18,33h1v1h-1z M22,33h1v1h-1z M23,33h1v1h-1z M24,33h1v1h-1z M25,33h1v1h-1z M27,33h1v1h-1z M30,33h1v1h-1z M34,33h1v1h-1z M35,33h1v1h-1z M36,33h1v1h-1z M38,33h1v1h-1z M39,33h1v1h-1z M40,33h1v1h-1z M41,33h1v1h-1z M43,33h1v1h-1z M44,33h1v1h-1z M45,33h1v1h-1z M46,33h1v1h-1z M48,33h1v1h-1z M49,33h1v1h-1z M51,33h1v1h-1z M52,33h1v1h-1z M56,33h1v1h-1z M59,33h1v1h-1z M60,33h1v1h-1z M8,34h1v1h-1z M9,34h1v1h-1z M10,34h1v1h-1z M11,34h1v1h-1z M12,34h1v1h-1z M14,34h1v1h-1z M16,34h1v1h-1z M17,34h1v1h-1z M18,34h1v1h-1z M27,34h1v1h-1z M28,34h1v1h-1z M29,34h1v1h-1z M30,34h1v1h-1z M31,34h1v1h-1z M32,34h1v1h-1z M33,34h1v1h-1z M34,34h1v1h-1z M35,34h1v1h-1z M39,34h1v1h-1z M41,34h1v1h-1z M42,34h1v1h-1z M44,34h1v1h-1z M45,34h1v1h-1z M46,34h1v1h-1z M48,34h1v1h-1z M49,34h1v1h-1z M51,34h1v1h-1z M52,34h1v1h-1z M53,34h1v1h-1z M54,34h1v1h-1z M55,34h1v1h-1z M56,34h1v1h-1z M57,34h1v1h-1z M59,34h1v1h-1z M60,34h1v1h-1z M5,35h1v1h-1z M14,35h1v1h-1z M15,35h1v1h-1z M17,35h1v1h-1z M18,35h1v1h-1z M20,35h1v1h-1z M21,35h1v1h-1z M22,35h1v1h-1z M23,35h1v1h-1z M24,35h1v1h-1z M28,35h1v1h-1z M30,35h1v1h-1z M31,35h1v1h-1z M36,35h1v1h-1z M38,35h1v1h-1z M39,35h1v1h-1z M41,35h1v1h-1z M43,35h1v1h-1z M44,35h1v1h-1z M46,35h1v1h-1z M47,35h1v1h-1z M49,35h1v1h-1z M50,35h1v1h-1z M51,35h1v1h-1z M54,35h1v1h-1z M57,35h1v1h-1z M58,35h1v1h-1z M60,35h1v1h-1z M4,36h1v1h-1z M5,36h1v1h-1z M9,36h1v1h-1z M10,36h1v1h-1z M11,36h1v1h-1z M13,36h1v1h-1z M14,36h1v1h-1z M16,36h1v1h-1z M19,36h1v1h-1z M20,36h1v1h-1z M21,36h1v1h-1z M22,36h1v1h-1z M23,36h1v1h-1z M25,36h1v1h-1z M26,36h1v1h-1z M28,36h1v1h-1z M29,36h1v1h-1z M31,36h1v1h-1z M32,36h1v1h-1z M34,36h1v1h-1z M37,36h1v1h-1z M41,36h1v1h-1z M46,36h1v1h-1z M47,36h1v1h-1z M49,36h1v1h-1z M50,36h1v1h-1z M55,36h1v1h-1z M56,36h1v1h-1z M57,36h1v1h-1z M4,37h1v1h-1z M5,37h1v1h-1z M9,37h1v1h-1z M14,37h1v1h-1z M15,37h1v1h-1z M19,37h1v1h-1z M21,37h1v1h-1z M22,37h1v1h-1z M23,37h1v1h-1z M28,37h1v1h-1z M30,37h1v1h-1z M34,37h1v1h-1z M35,37h1v1h-1z M37,37h1v1h-1z M38,37h1v1h-1z M40,37h1v1h-1z M42,37h1v1h-1z M43,37h1v1h-1z M45,37h1v1h-1z M46,37h1v1h-1z M47,37h1v1h-1z M48,37h1v1h-1z M50,37h1v1h-1z M51,37h1v1h-1z M52,37h1v1h-1z M55,37h1v1h-1z M56,37h1v1h-1z M4,38h1v1h-1z M6,38h1v1h-1z M7,38h1v1h-1z M8,38h1v1h-1z M10,38h1v1h-1z M12,38h1v1h-1z M15,38h1v1h-1z M16,38h1v1h-1z M19,38h1v1h-1z M20,38h1v1h-1z M21,38h1v1h-1z M24,38h1v1h-1z M25,38h1v1h-1z M26,38h1v1h-1z M27,38h1v1h-1z M30,38h1v1h-1z M31,38h1v1h-1z M32,38h1v1h-1z M34,38h1v1h-1z M37,38h1v1h-1z M40,38h1v1h-1z M41,38h1v1h-1z M42,38h1v1h-1z M44,38h1v1h-1z M45,38h1v1h-1z M46,38h1v1h-1z M48,38h1v1h-1z M49,38h1v1h-1z M50,38h1v1h-1z M53,38h1v1h-1z M57,38h1v1h-1z M59,38h1v1h-1z M4,39h1v1h-1z M5,39h1v1h-1z M6,39h1v1h-1z M7,39h1v1h-1z M11,39h1v1h-1z M15,39h1v1h-1z M16,39h1v1h-1z M17,39h1v1h-1z M22,39h1v1h-1z M23,39h1v1h-1z M24,39h1v1h-1z M26,39h1v1h-1z M31,39h1v1h-1z M32,39h1v1h-1z M35,39h1v1h-1z M36,39h1v1h-1z M37,39h1v1h-1z M41,39h1v1h-1z M42,39h1v1h-1z M44,39h1v1h-1z M45,39h1v1h-1z M46,39h1v1h-1z M47,39h1v1h-1z M48,39h1v1h-1z M52,39h1v1h-1z M54,39h1v1h-1z M55,39h1v1h-1z M58,39h1v1h-1z M4,40h1v1h-1z M5,40h1v1h-1z M7,40h1v1h-1z M8,40h1v1h-1z M9,40h1v1h-1z M10,40h1v1h-1z M13,40h1v1h-1z M15,40h1v1h-1z M16,40h1v1h-1z M17,40h1v1h-1z M21,40h1v1h-1z M23,40h1v1h-1z M25,40h1v1h-1z M26,40h1v1h-1z M30,40h1v1h-1z M31,40h1v1h-1z M36,40h1v1h-1z M37,40h1v1h-1z M40,40h1v1h-1z M41,40h1v1h-1z M42,40h1v1h-1z M44,40h1v1h-1z M46,40h1v1h-1z M47,40h1v1h-1z M48,40h1v1h-1z M50,40h1v1h-1z M51,40h1v1h-1z M55,40h1v1h-1z M60,40h1v1h-1z M5,41h1v1h-1z M7,41h1v1h-1z M8,41h1v1h-1z M11,41h1v1h-1z M12,41h1v1h-1z M13,41h1v1h-1z M15,41h1v1h-1z M17,41h1v1h-1z M20,41h1v1h-1z M21,41h1v1h-1z M22,41h1v1h-1z M23,41h1v1h-1z M24,41h1v1h-1z M25,41h1v1h-1z M27,41h1v1h-1z M30,41h1v1h-1z M31,41h1v1h-1z M34,41h1v1h-1z M35,41h1v1h-1z M36,41h1v1h-1z M37,41h1v1h-1z M39,41h1v1h-1z M40,41h1v1h-1z M41,41h1v1h-1z M43,41h1v1h-1z M44,41h1v1h-1z M45,41h1v1h-1z M46,41h1v1h-1z M48,41h1v1h-1z M49,41h1v1h-1z M52,41h1v1h-1z M54,41h1v1h-1z M55,41h1v1h-1z M58,41h1v1h-1z M60,41h1v1h-1z M5,42h1v1h-1z M6,42h1v1h-1z M8,42h1v1h-1z M10,42h1v1h-1z M14,42h1v1h-1z M16,42h1v1h-1z M17,42h1v1h-1z M18,42h1v1h-1z M20,42h1v1h-1z M21,42h1v1h-1z M22,42h1v1h-1z M24,42h1v1h-1z M25,42h1v1h-1z M28,42h1v1h-1z M29,42h1v1h-1z M32,42h1v1h-1z M33,42h1v1h-1z M35,42h1v1h-1z M36,42h1v1h-1z M38,42h1v1h-1z M42,42h1v1h-1z M46,42h1v1h-1z M47,42h1v1h-1z M48,42h1v1h-1z M49,42h1v1h-1z M50,42h1v1h-1z M52,42h1v1h-1z M53,42h1v1h-1z M54,42h1v1h-1z M55,42h1v1h-1z M56,42h1v1h-1z M57,42h1v1h-1z M58,42h1v1h-1z M59,42h1v1h-1z M4,43h1v1h-1z M5,43h1v1h-1z M11,43h1v1h-1z M13,43h1v1h-1z M17,43h1v1h-1z M19,43h1v1h-1z M20,43h1v1h-1z M23,43h1v1h-1z M24,43h1v1h-1z M28,43h1v1h-1z M29,43h1v1h-1z M33,43h1v1h-1z M35,43h1v1h-1z M36,43h1v1h-1z M37,43h1v1h-1z M39,43h1v1h-1z M40,43h1v1h-1z M41,43h1v1h-1z M48,43h1v1h-1z M50,43h1v1h-1z M51,43h1v1h-1z M54,43h1v1h-1z M56,43h1v1h-1z M57,43h1v1h-1z M58,43h1v1h-1z M60,43h1v1h-1z M4,44h1v1h-1z M6,44h1v1h-1z M7,44h1v1h-1z M10,44h1v1h-1z M13,44h1v1h-1z M18,44h1v1h-1z M19,44h1v1h-1z M20,44h1v1h-1z M24,44h1v1h-1z M25,44h1v1h-1z M26,44h1v1h-1z M27,44h1v1h-1z M28,44h1v1h-1z M29,44h1v1h-1z M32,44h1v1h-1z M33,44h1v1h-1z M34,44h1v1h-1z M38,44h1v1h-1z M40,44h1v1h-1z M42,44h1v1h-1z M47,44h1v1h-1z M48,44h1v1h-1z M53,44h1v1h-1z M55,44h1v1h-1z M56,44h1v1h-1z M59,44h1v1h-1z M60,44h1v1h-1z M5,45h1v1h-1z M6,45h1v1h-1z M9,45h1v1h-1z M12,45h1v1h-1z M13,45h1v1h-1z M14,45h1v1h-1z M15,45h1v1h-1z M16,45h1v1h-1z M17,45h1v1h-1z M19,45h1v1h-1z M23,45h1v1h-1z M24,45h1v1h-1z M27,45h1v1h-1z M29,45h1v1h-1z M32,45h1v1h-1z M34,45h1v1h-1z M37,45h1v1h-1z M39,45h1v1h-1z M40,45h1v1h-1z M41,45h1v1h-1z M42,45h1v1h-1z M43,45h1v1h-1z M45,45h1v1h-1z M46,45h1v1h-1z M48,45h1v1h-1z M52,45h1v1h-1z M55,45h1v1h-1z M57,45h1v1h-1z M58,45h1v1h-1z M60,45h1v1h-1z M6,46h1v1h-1z M7,46h1v1h-1z M8,46h1v1h-1z M10,46h1v1h-1z M11,46h1v1h-1z M12,46h1v1h-1z M14,46h1v1h-1z M18,46h1v1h-1z M19,46h1v1h-1z M25,46h1v1h-1z M28,46h1v1h-1z M30,46h1v1h-1z M33,46h1v1h-1z M34,46h1v1h-1z M35,46h1v1h-1z M36,46h1v1h-1z M41,46h1v1h-1z M42,46h1v1h-1z M43,46h1v1h-1z M44,46h1v1h-1z M45,46h1v1h-1z M50,46h1v1h-1z M52,46h1v1h-1z M54,46h1v1h-1z M60,46h1v1h-1z M4,47h1v1h-1z M5,47h1v1h-1z M6,47h1v1h-1z M9,47h1v1h-1z M11,47h1v1h-1z M12,47h1v1h-1z M13,47h1v1h-1z M14,47h1v1h-1z M17,47h1v1h-1z M21,47h1v1h-1z M22,47h1v1h-1z M24,47h1v1h-1z M25,47h1v1h-1z M32,47h1v1h-1z M33,47h1v1h-1z M37,47h1v1h-1z M38,47h1v1h-1z M39,47h1v1h-1z M40,47h1v1h-1z M42,47h1v1h-1z M44,47h1v1h-1z M46,47h1v1h-1z M47,47h1v1h-1z M48,47h1v1h-1z M50,47h1v1h-1z M51,47h1v1h-1z M54,47h1v1h-1z M55,47h1v1h-1z M57,47h1v1h-1z M58,47h1v1h-1z M59,47h1v1h-1z M60,47h1v1h-1z M5,48h1v1h-1z M6,48h1v1h-1z M7,48h1v1h-1z M10,48h1v1h-1z M11,48h1v1h-1z M12,48h1v1h-1z M13,48h1v1h-1z M14,48h1v1h-1z M15,48h1v1h-1z M18,48h1v1h-1z M20,48h1v1h-1z M21,48h1v1h-1z M22,48h1v1h-1z M23,48h1v1h-1z M28,48h1v1h-1z M32,48h1v1h-1z M34,48h1v1h-1z M35,48h1v1h-1z M38,48h1v1h-1z M39,48h1v1h-1z M40,48h1v1h-1z M41,48h1v1h-1z M45,48h1v1h-1z M46,48h1v1h-1z M47,48h1v1h-1z M56,48h1v1h-1z M59,48h1v1h-1z M60,48h1v1h-1z M6,49h1v1h-1z M8,49h1v1h-1z M12,49h1v1h-1z M15,49h1v1h-1z M16,49h1v1h-1z M17,49h1v1h-1z M20,49h1v1h-1z M24,49h1v1h-1z M26,49h1v1h-1z M27,49h1v1h-1z M32,49h1v1h-1z M33,49h1v1h-1z M34,49h1v1h-1z M35,49h1v1h-1z M38,49h1v1h-1z M42,49h1v1h-1z M44,49h1v1h-1z M45,49h1v1h-1z M46,49h1v1h-1z M47,49h1v1h-1z M49,49h1v1h-1z M50,49h1v1h-1z M52,49h1v1h-1z M53,49h1v1h-1z M56,49h1v1h-1z M57,49h1v1h-1z M60,49h1v1h-1z M4,50h1v1h-1z M6,50h1v1h-1z M9,50h1v1h-1z M10,50h1v1h-1z M11,50h1v1h-1z M14,50h1v1h-1z M15,50h1v1h-1z M16,50h1v1h-1z M18,50h1v1h-1z M21,50h1v1h-1z M24,50h1v1h-1z M27,50h1v1h-1z M28,50h1v1h-1z M29,50h1v1h-1z M30,50h1v1h-1z M31,50h1v1h-1z M32,50h1v1h-1z M33,50h1v1h-1z M34,50h1v1h-1z M35,50h1v1h-1z M36,50h1v1h-1z M37,50h1v1h-1z M38,50h1v1h-1z M39,50h1v1h-1z M40,50h1v1h-1z M49,50h1v1h-1z M50,50h1v1h-1z M51,50h1v1h-1z M52,50h1v1h-1z M53,50h1v1h-1z M55,50h1v1h-1z M59,50h1v1h-1z M4,51h1v1h-1z M5,51h1v1h-1z M6,51h1v1h-1z M7,51h1v1h-1z M8,51h1v1h-1z M15,51h1v1h-1z M16,51h1v1h-1z M20,51h1v1h-1z M22,51h1v1h-1z M23,51h1v1h-1z M25,51h1v1h-1z M29,51h1v1h-1z M31,51h1v1h-1z M37,51h1v1h-1z M39,51h1v1h-1z M40,51h1v1h-1z M44,51h1v1h-1z M45,51h1v1h-1z M46,51h1v1h-1z M47,51h1v1h-1z M48,51h1v1h-1z M49,51h1v1h-1z M50,51h1v1h-1z M51,51h1v1h-1z M52,51h1v1h-1z M57,51h1v1h-1z M58,51h1v1h-1z M10,52h1v1h-1z M16,52h1v1h-1z M19,52h1v1h-1z M20,52h1v1h-1z M21,52h1v1h-1z M28,52h1v1h-1z M29,52h1v1h-1z M30,52h1v1h-1z M31,52h1v1h-1z M32,52h1v1h-1z M33,52h1v1h-1z M34,52h1v1h-1z M38,52h1v1h-1z M40,52h1v1h-1z M42,52h1v1h-1z M44,52h1v1h-1z M45,52h1v1h-1z M47,52h1v1h-1z M48,52h1v1h-1z M51,52h1v1h-1z M52,52h1v1h-1z M53,52h1v1h-1z M54,52h1v1h-1z M55,52h1v1h-1z M56,52h1v1h-1z M57,52h1v1h-1z M60,52h1v1h-1z M12,53h1v1h-1z M13,53h1v1h-1z M14,53h1v1h-1z M15,53h1v1h-1z M16,53h1v1h-1z M19,53h1v1h-1z M20,53h1v1h-1z M21,53h1v1h-1z M25,53h1v1h-1z M29,53h1v1h-1z M30,53h1v1h-1z M34,53h1v1h-1z M35,53h1v1h-1z M36,53h1v1h-1z M37,53h1v1h-1z M38,53h1v1h-1z M40,53h1v1h-1z M45,53h1v1h-1z M46,53h1v1h-1z M47,53h1v1h-1z M49,53h1v1h-1z M51,53h1v1h-1z M52,53h1v1h-1z M56,53h1v1h-1z M57,53h1v1h-1z M4,54h1v1h-1z M5,54h1v1h-1z M6,54h1v1h-1z M7,54h1v1h-1z M8,54h1v1h-1z M9,54h1v1h-1z M10,54h1v1h-1z M13,54h1v1h-1z M14,54h1v1h-1z M16,54h1v1h-1z M17,54h1v1h-1z M19,54h1v1h-1z M20,54h1v1h-1z M21,54h1v1h-1z M26,54h1v1h-1z M28,54h1v1h-1z M30,54h1v1h-1z M32,54h1v1h-1z M34,54h1v1h-1z M35,54h1v1h-1z M36,54h1v1h-1z M38,54h1v1h-1z M39,54h1v1h-1z M40,54h1v1h-1z M41,54h1v1h-1z M43,54h1v1h-1z M44,54h1v1h-1z M47,54h1v1h-1z M49,54h1v1h-1z M50,54h1v1h-1z M52,54h1v1h-1z M54,54h1v1h-1z M56,54h1v1h-1z M59,54h1v1h-1z M4,55h1v1h-1z M10,55h1v1h-1z M12,55h1v1h-1z M15,55h1v1h-1z M21,55h1v1h-1z M24,55h1v1h-1z M27,55h1v1h-1z M29,55h1v1h-1z M30,55h1v1h-1z M34,55h1v1h-1z M35,55h1v1h-1z M36,55h1v1h-1z M37,55h1v1h-1z M45,55h1v1h-1z M46,55h1v1h-1z M47,55h1v1h-1z M50,55h1v1h-1z M52,55h1v1h-1z M56,55h1v1h-1z M57,55h1v1h-1z M58,55h1v1h-1z M59,55h1v1h-1z M60,55h1v1h-1z M4,56h1v1h-1z M6,56h1v1h-1z M7,56h1v1h-1z M8,56h1v1h-1z M10,56h1v1h-1z M13,56h1v1h-1z M14,56h1v1h-1z M15,56h1v1h-1z M18,56h1v1h-1z M20,56h1v1h-1z M21,56h1v1h-1z M22,56h1v1h-1z M25,56h1v1h-1z M27,56h1v1h-1z M28,56h1v1h-1z M30,56h1v1h-1z M31,56h1v1h-1z M32,56h1v1h-1z M33,56h1v1h-1z M34,56h1v1h-1z M36,56h1v1h-1z M38,56h1v1h-1z M40,56h1v1h-1z M41,56h1v1h-1z M42,56h1v1h-1z M45,56h1v1h-1z M46,56h1v1h-1z M47,56h1v1h-1z M50,56h1v1h-1z M51,56h1v1h-1z M52,56h1v1h-1z M53,56h1v1h-1z M54,56h1v1h-1z M55,56h1v1h-1z M56,56h1v1h-1z M60,56h1v1h-1z M4,57h1v1h-1z M6,57h1v1h-1z M7,57h1v1h-1z M8,57h1v1h-1z M10,57h1v1h-1z M16,57h1v1h-1z M18,57h1v1h-1z M19,57h1v1h-1z M22,57h1v1h-1z M28,57h1v1h-1z M33,57h1v1h-1z M34,57h1v1h-1z M35,57h1v1h-1z M36,57h1v1h-1z M38,57h1v1h-1z M40,57h1v1h-1z M43,57h1v1h-1z M45,57h1v1h-1z M46,57h1v1h-1z M47,57h1v1h-1z M49,57h1v1h-1z M51,57h1v1h-1z M53,57h1v1h-1z M56,57h1v1h-1z M57,57h1v1h-1z M4,58h1v1h-1z M6,58h1v1h-1z M7,58h1v1h-1z M8,58h1v1h-1z M10,58h1v1h-1z M15,58h1v1h-1z M18,58h1v1h-1z M19,58h1v1h-1z M22,58h1v1h-1z M23,58h1v1h-1z M24,58h1v1h-1z M26,58h1v1h-1z M27,58h1v1h-1z M30,58h1v1h-1z M33,58h1v1h-1z M34,58h1v1h-1z M36,58h1v1h-1z M39,58h1v1h-1z M48,58h1v1h-1z M50,58h1v1h-1z M51,58h1v1h-1z M52,58h1v1h-1z M53,58h1v1h-1z M54,58h1v1h-1z M56,58h1v1h-1z M57,58h1v1h-1z M59,58h1v1h-1z M60,58h1v1h-1z M4,59h1v1h-1z M10,59h1v1h-1z M14,59h1v1h-1z M15,59h1v1h-1z M17,59h1v1h-1z M19,59h1v1h-1z M20,59h1v1h-1z M22,59h1v1h-1z M24,59h1v1h-1z M26,59h1v1h-1z M30,59h1v1h-1z M31,59h1v1h-1z M32,59h1v1h-1z M33,59h1v1h-1z M35,59h1v1h-1z M40,59h1v1h-1z M42,59h1v1h-1z M43,59h1v1h-1z M46,59h1v1h-1z M48,59h1v1h-1z M52,59h1v1h-1z M53,59h1v1h-1z M56,59h1v1h-1z M57,59h1v1h-1z M4,60h1v1h-1z M5,60h1v1h-1z M6,60h1v1h-1z M7,60h1v1h-1z M8,60h1v1h-1z M9,60h1v1h-1z M10,60h1v1h-1z M15,60h1v1h-1z M16,60h1v1h-1z M22,60h1v1h-1z M26,60h1v1h-1z M27,60h1v1h-1z M28,60h1v1h-1z M31,60h1v1h-1z M37,60h1v1h-1z M38,60h1v1h-1z M40,60h1v1h-1z M41,60h1v1h-1z M43,60h1v1h-1z M45,60h1v1h-1z M46,60h1v1h-1z M47,60h1v1h-1z M51,60h1v1h-1z M53,60h1v1h-1z M55,60h1v1h-1z M58,60h1v1h-1z M59,60h1v1h-1z" fill="#000000"/>
</svg>
